<svg width="175" height="72" viewBox="0 0 175 72" fill="none" xmlns="http://www.w3.org/2000/svg">
<path d="M10.4167 56.8333C7.6667 56.8333 6.56254 51.9166 6.33337 49.9583C6.08666 48.057 6.31573 46.1242 7.00004 44.3333C7.3008 43.4811 7.81813 42.7218 8.50118 42.1301C9.18423 41.5384 10.0095 41.1345 10.8959 40.9583C13.3334 40.5416 15.0625 42 17.2709 42.5C17.6857 42.6331 18.1279 42.6565 18.5545 42.5678C18.981 42.4791 19.3773 42.2813 19.7047 41.9939C20.032 41.7064 20.2793 41.339 20.4223 40.9274C20.5654 40.5159 20.5993 40.0744 20.5209 39.6458C19.6042 36.0625 13.0834 36 10.4167 36C10.4167 32.125 14.6667 31.625 17.7084 31.9166C19.5128 32.0909 21.2896 32.4827 23 33.0833C24.0417 33.4375 25.25 34.3333 26.3959 34.25C28.125 34.1041 28.4792 32.3125 27.7292 31C25.9167 27.9166 20.7709 27.6666 17.7084 27.6666C17.7084 23.5 21.3125 22.7083 24.7709 23.3333C26.5566 23.6845 28.2968 24.2366 29.9584 24.9791C31.0209 25.4375 32.2917 26.3125 33.4584 25.9166C36.4584 25 33.3334 21.7916 32 21.0208C31.0642 20.5044 30.0714 20.0989 29.0417 19.8125C27.9167 19.4791 26.5417 19.6041 27.5625 18.2916C29.1588 16.8833 31.1392 15.9838 33.25 15.7083C37.1875 14.7916 42.625 14.625 43.5834 19.5833C43.9027 22.2011 43.2746 24.8468 41.8125 27.0416C37.9313 33.6805 33.1263 39.7341 27.5417 45.0208C24.5837 48.053 21.3782 50.8335 17.9584 53.3333C15.875 54.8333 13.125 56.8333 10.4167 56.8333Z" fill="#461D1A"/>
<path d="M76.15 28.6V22C76.15 21.4667 76.05 21.1167 75.85 20.95C75.65 20.75 75.2667 20.65 74.7 20.65H70.15V29.95H74.7C75.2667 29.95 75.65 29.8667 75.85 29.7C76.05 29.5 76.15 29.1333 76.15 28.6ZM76.15 42.45V35.5C76.15 34.9667 76.05 34.6167 75.85 34.45C75.65 34.25 75.2667 34.15 74.7 34.15H70.15V43.8H74.7C75.2667 43.8 75.65 43.7167 75.85 43.55C76.05 43.35 76.15 42.9833 76.15 42.45ZM64.4 16.45H76.4C80.0333 16.45 81.85 18.1 81.85 21.4V28.2C81.85 30.3 81.15 31.5833 79.75 32.05C81.15 32.5167 81.85 33.7167 81.85 35.65V43.05C81.85 46.35 80.0333 48 76.4 48H64.4V16.45ZM96.0215 23.45H101.621V48H95.9215V45.9C95.4215 47.3 94.2715 48 92.4715 48H90.9215C87.5215 48 85.8215 46.35 85.8215 43.05V28.4C85.8215 25.1 87.5215 23.45 90.9215 23.45H92.4715C94.4382 23.45 95.6215 24.25 96.0215 25.85V23.45ZM92.8715 43.6H94.3715C95.4048 43.6 95.9215 43.05 95.9215 41.95V29.5C95.9215 28.4 95.4048 27.85 94.3715 27.85H92.8715C92.3382 27.85 91.9715 27.95 91.7715 28.15C91.5715 28.3167 91.4715 28.6667 91.4715 29.2V42.25C91.4715 42.7833 91.5715 43.15 91.7715 43.35C91.9715 43.5167 92.3382 43.6 92.8715 43.6ZM123.199 23.45L117.699 35.25L123.199 48H117.249L111.949 35.25L117.299 23.45H123.199ZM105.849 48V14.55H111.499V48H105.849ZM130.58 23.45H135.88C139.48 23.45 141.28 25.1 141.28 28.4V37.35H130.63V42.4C130.63 42.9333 130.714 43.3 130.88 43.5C131.08 43.6667 131.464 43.75 132.03 43.75H134.33C134.864 43.75 135.23 43.6667 135.43 43.5C135.63 43.3 135.73 42.9333 135.73 42.4V40.55H141.23V43.05C141.23 46.35 139.414 48 135.78 48H130.58C126.947 48 125.13 46.35 125.13 43.05V28.4C125.13 25.1 126.947 23.45 130.58 23.45ZM130.63 33.7H135.83V29C135.83 28.4667 135.73 28.1167 135.53 27.95C135.33 27.75 134.964 27.65 134.43 27.65H132.03C131.497 27.65 131.13 27.75 130.93 27.95C130.73 28.1167 130.63 28.4667 130.63 29V33.7ZM154.961 23.35H155.861V28.25H153.761C151.661 28.25 150.611 29.45 150.611 31.85V48H144.961V23.45H150.561V26.6C150.827 25.6333 151.344 24.85 152.111 24.25C152.877 23.65 153.827 23.35 154.961 23.35ZM162.392 54.8H159.042V50.45H161.592C163.058 50.45 163.958 49.8667 164.292 48.7L164.692 47.1H161.992L156.392 23.45H162.242L165.742 42.35L168.992 23.45H174.692L169.192 49.5C168.325 53.0333 166.058 54.8 162.392 54.8Z" fill="white"/>
</svg>
