<svg width="153" height="57" viewBox="0 0 153 57" fill="none" xmlns="http://www.w3.org/2000/svg">
<path d="M10.4167 49.3333C7.6667 49.3333 6.56254 44.4166 6.33337 42.4583C6.08666 40.557 6.31573 38.6242 7.00004 36.8333C7.3008 35.9811 7.81813 35.2218 8.50118 34.6301C9.18423 34.0384 10.0095 33.6345 10.8959 33.4583C13.3334 33.0416 15.0625 34.5 17.2709 35C17.6857 35.1331 18.1279 35.1565 18.5545 35.0678C18.981 34.9791 19.3773 34.7813 19.7047 34.4939C20.032 34.2064 20.2793 33.839 20.4223 33.4274C20.5654 33.0159 20.5993 32.5744 20.5209 32.1458C19.6042 28.5625 13.0834 28.5 10.4167 28.5C10.4167 24.625 14.6667 24.125 17.7084 24.4166C19.5128 24.5909 21.2896 24.9827 23 25.5833C24.0417 25.9375 25.25 26.8333 26.3959 26.75C28.125 26.6041 28.4792 24.8125 27.7292 23.5C25.9167 20.4166 20.7709 20.1666 17.7084 20.1666C17.7084 16 21.3125 15.2083 24.7709 15.8333C26.5566 16.1845 28.2968 16.7366 29.9584 17.4791C31.0209 17.9375 32.2917 18.8125 33.4584 18.4166C36.4584 17.5 33.3334 14.2916 32 13.5208C31.0642 13.0044 30.0714 12.5989 29.0417 12.3125C27.9167 11.9791 26.5417 12.1041 27.5625 10.7916C29.1588 9.38334 31.1392 8.4838 33.25 8.20831C37.1875 7.29164 42.625 7.12498 43.5834 12.0833C43.9027 14.7011 43.2746 17.3468 41.8125 19.5416C37.9313 26.1805 33.1263 32.2341 27.5417 37.5208C24.5837 40.553 21.3782 43.3335 17.9584 45.8333C15.875 47.3333 13.125 49.3333 10.4167 49.3333Z" fill="#8C4D46"/>
<path d="M73.32 22.48V17.2C73.32 16.7733 73.24 16.4933 73.08 16.36C72.92 16.2 72.6133 16.12 72.16 16.12H68.52V23.56H72.16C72.6133 23.56 72.92 23.4933 73.08 23.36C73.24 23.2 73.32 22.9067 73.32 22.48ZM73.32 33.56V28C73.32 27.5733 73.24 27.2933 73.08 27.16C72.92 27 72.6133 26.92 72.16 26.92H68.52V34.64H72.16C72.6133 34.64 72.92 34.5733 73.08 34.44C73.24 34.28 73.32 33.9867 73.32 33.56ZM63.92 12.76H73.52C76.4267 12.76 77.88 14.08 77.88 16.72V22.16C77.88 23.84 77.32 24.8667 76.2 25.24C77.32 25.6133 77.88 26.5733 77.88 28.12V34.04C77.88 36.68 76.4267 38 73.52 38H63.92V12.76ZM89.2172 18.36H93.6972V38H89.1372V36.32C88.7372 37.44 87.8172 38 86.3772 38H85.1372C82.4172 38 81.0572 36.68 81.0572 34.04V22.32C81.0572 19.68 82.4172 18.36 85.1372 18.36H86.3772C87.9505 18.36 88.8972 19 89.2172 20.28V18.36ZM86.6972 34.48H87.8972C88.7239 34.48 89.1372 34.04 89.1372 33.16V23.2C89.1372 22.32 88.7239 21.88 87.8972 21.88H86.6972C86.2705 21.88 85.9772 21.96 85.8172 22.12C85.6572 22.2533 85.5772 22.5333 85.5772 22.96V33.4C85.5772 33.8267 85.6572 34.12 85.8172 34.28C85.9772 34.4133 86.2705 34.48 86.6972 34.48ZM110.959 18.36L106.559 27.8L110.959 38H106.199L101.959 27.8L106.239 18.36H110.959ZM97.0794 38V11.24H101.599V38H97.0794ZM116.864 18.36H121.104C123.984 18.36 125.424 19.68 125.424 22.32V29.48H116.904V33.52C116.904 33.9467 116.971 34.24 117.104 34.4C117.264 34.5333 117.571 34.6 118.024 34.6H119.864C120.291 34.6 120.584 34.5333 120.744 34.4C120.904 34.24 120.984 33.9467 120.984 33.52V32.04H125.384V34.04C125.384 36.68 123.931 38 121.024 38H116.864C113.958 38 112.504 36.68 112.504 34.04V22.32C112.504 19.68 113.958 18.36 116.864 18.36ZM116.904 26.56H121.064V22.8C121.064 22.3733 120.984 22.0933 120.824 21.96C120.664 21.8 120.371 21.72 119.944 21.72H118.024C117.598 21.72 117.304 21.8 117.144 21.96C116.984 22.0933 116.904 22.3733 116.904 22.8V26.56ZM136.368 18.28H137.088V22.2H135.408C133.728 22.2 132.888 23.16 132.888 25.08V38H128.368V18.36H132.848V20.88C133.062 20.1067 133.475 19.48 134.088 19C134.702 18.52 135.462 18.28 136.368 18.28ZM142.313 43.44H139.633V39.96H141.673C142.847 39.96 143.567 39.4933 143.833 38.56L144.153 37.28H141.993L137.513 18.36H142.193L144.993 33.48L147.593 18.36H152.153L147.753 39.2C147.06 42.0267 145.247 43.44 142.313 43.44Z" fill="white"/>
</svg>
